#!OML:ASF H:\Terrain\Patient Classification 1\Takeo\Monday\TakeoMonday.ASF
:FULLY-SPECIFIED
:DEGREES
992
root 10.1089 17.7172 -0.297142 -9.9839 -10.6066 -0.637055
lowerback 2.96967 1.15314 3.92638
upperback 2.28297 1.61705 0.460745
thorax 0.776595 0.852534 -1.7611
lowerneck -10.8511 2.09964 -1.99137
upperneck 9.82928 2.62098 4.37983
head 4.63461 1.49115 1.86366
rclavicle -2.79168e-014 -1.39149e-014
rhumerus 30.4955 42.0521 -57.9276
rradius 133.618
rwrist -68.0811
rhand -32.5898 6.24221
rfingers 7.12502
rthumb -5.81816 -23.6579
lclavicle -2.79168e-014 -1.39149e-014
lhumerus -39.1173 17.9891 79.1427
lradius 35.4466
lwrist 31.6911
lhand -20.4602 20.2878
lfingers 7.12502
lthumb 5.89554 50.1858
rfemur 9.21686 2.79661 20.1915
rtibia 16.5076
rfoot -13.1255 -14.9931
rtoes -2.12611
lfemur 7.85161 1.88838 -19.9513
ltibia 21.0438
lfoot -16.4279 19.2972
ltoes -4.09928
993
root 10.0998 17.7192 -0.296801 -10.0519 -10.4895 -0.355902
lowerback 3.04502 1.20441 3.63479
upperback 2.32289 1.68203 0.356581
thorax 0.773315 0.882825 -1.70746
lowerneck -10.4408 2.19456 -2.30263
upperneck 9.76853 2.76918 4.59736
head 4.53462 1.56192 1.98382
rclavicle -1.76173e-014 -1.5704e-014
rhumerus 29.9585 42.7087 -58.0552
rradius 133.24
rwrist -67.3952
rhand -32.3174 6.90433
rfingers 7.12502
rthumb -5.5552 -23.0029
lclavicle -1.76173e-014 -1.5704e-014
lhumerus -39.3558 17.871 79.1302
lradius 35.9412
lwrist 31.5576
lhand -20.4156 22.529
lfingers 7.12502
lthumb 5.93856 52.4258
rfemur 9.14209 2.6835 19.8714
rtibia 16.7608
rfoot -13.2097 -14.9353
rtoes -2.4929
lfemur 7.86316 1.82718 -20.2525
ltibia 21.0675
lfoot -16.3987 19.3113
ltoes -3.79932
994
root 10.0875 17.7168 -0.306093 -9.93255 -10.3316 -0.191194
lowerback 3.01226 1.25343 3.35324
upperback 2.35032 1.73945 0.338511
thorax 0.814453 0.90923 -1.56842
lowerneck -11.1624 2.19482 -1.55292
upperneck 10.8641 2.78558 3.34623
head 5.02277 1.52735 1.50238
rclavicle -4.84165e-014 -8.74653e-015
rhumerus 29.5349 43.4215 -57.9396
rradius 132.853
rwrist -66.3765
rhand -31.6384 7.46277
rfingers 7.12502
rthumb -4.89959 -22.4606
lclavicle -4.84165e-014 -8.74653e-015
lhumerus -39.232 17.4643 79.375
lradius 36.0649
lwrist 32.1838
lhand -20.334 23.1947
lfingers 7.12502
lthumb 6.01735 53.0892
rfemur 8.85532 2.60492 19.7076
rtibia 16.9968
rfoot -13.2837 -14.9392
rtoes -2.05406
lfemur 7.66221 1.80678 -20.4285
ltibia 21.0913
lfoot -16.1626 19.3983
ltoes -3.70016
995
root 10.074 17.7095 -0.324535 -9.75903 -10.1681 0.06251
lowerback 2.99428 1.29479 2.94978
upperback 2.42709 1.78419 0.268754
thorax 0.894614 0.929005 -1.41352
lowerneck -13.4805 2.16716 0.975468
upperneck 13.4811 2.76554 -0.132087
head 6.32702 1.37757 0.0564347
rclavicle 1.20762e-014 7.35503e-015
rhumerus 29.3956 44.2378 -57.6574
rradius 132.344
rwrist -64.6747
rhand -31.0482 7.73987
rfingers 7.12502
rthumb -4.32967 -22.1959
lclavicle 1.20762e-014 7.35503e-015
lhumerus -38.9959 17.3423 79.5224
lradius 36.2375
lwrist 32.6607
lhand -20.378 22.2407
lfingers 7.12502
lthumb 5.97487 52.1364
rfemur 8.54992 2.50642 19.4578
rtibia 17.0715
rfoot -13.3605 -14.8619
rtoes -0.695988
lfemur 7.28644 1.68951 -20.7133
ltibia 21.2213
lfoot -15.9949 19.534
ltoes -3.09908
996
root 10.0608 17.708 -0.342575 -9.61205 -10.0235 0.0401226
lowerback 3.07904 1.4256 3.00491
upperback 2.56334 1.96103 0.0986845
thorax 1.00373 1.02276 -1.62181
lowerneck -11.7948 2.33231 -1.14356
upperneck 11.7128 2.95764 2.85239
head 5.40298 1.59947 1.3163
rclavicle -2.31522e-014 -1.78906e-015
rhumerus 28.8667 44.8966 -57.7357
rradius 131.863
rwrist -62.7103
rhand -30.7827 7.79502
rfingers 7.12502
rthumb -4.07331 -22.1458
lclavicle -2.31522e-014 -1.78906e-015
lhumerus -38.6608 16.8702 79.5645
lradius 36.5045
lwrist 32.864
lhand -20.5174 21.83
lfingers 7.12502
lthumb 5.8403 51.7295
rfemur 8.39423 2.45863 19.5504
rtibia 17.0416
rfoot -13.4012 -14.9294
rtoes 0.167442
lfemur 6.93503 1.45346 -20.6533
ltibia 21.4471
lfoot -16.1593 19.4108
ltoes -2.08667
